<svg xmlns="http://www.w3.org/2000/svg" viewBox="0 0 500 400">
  <!-- Basic Kit Contents Illustration -->
  <defs>
    <linearGradient id="kitBg" x1="0%" y1="0%" x2="0%" y2="100%">
      <stop offset="0%" style="stop-color:#f8fafc"/>
      <stop offset="100%" style="stop-color:#f1f5f9"/>
    </linearGradient>
    <linearGradient id="brandGrad" x1="0%" y1="0%" x2="100%" y2="100%">
      <stop offset="0%" style="stop-color:#06b6d4"/>
      <stop offset="100%" style="stop-color:#3b82f6"/>
    </linearGradient>
    <filter id="kitShadow">
      <feDropShadow dx="2" dy="4" stdDeviation="4" flood-opacity="0.15"/>
    </filter>
  </defs>
  
  <!-- Background -->
  <rect x="0" y="0" width="500" height="400" fill="url(#kitBg)"/>
  
  <!-- Title -->
  <text x="250" y="35" font-size="24" font-weight="bold" fill="#1e293b" text-anchor="middle">Basic Kit Contents</text>
  <text x="250" y="55" font-size="12" fill="#64748b" text-anchor="middle">Everything you need for 1-3 story buildings</text>
  
  <!-- Sensor Node -->
  <g transform="translate(40, 80)" filter="url(#kitShadow)">
    <rect x="0" y="0" width="120" height="80" rx="8" fill="white" stroke="#e2e8f0" stroke-width="1"/>
    <rect x="10" y="10" width="100" height="50" rx="4" fill="#f8fafc"/>
    <text x="60" y="30" font-size="8" font-weight="bold" fill="#06b6d4" text-anchor="middle">CULTIVIO</text>
    <circle cx="25" cy="45" r="5" fill="#22c55e"/>
    <circle cx="40" cy="45" r="5" fill="#ef4444" opacity="0.3"/>
    <text x="60" y="100" font-size="11" font-weight="bold" fill="#1e293b" text-anchor="middle">Sensor Node</text>
    <text x="60" y="115" font-size="9" fill="#64748b" text-anchor="middle">× 1</text>
  </g>
  
  <!-- Controller Node -->
  <g transform="translate(190, 80)" filter="url(#kitShadow)">
    <rect x="0" y="0" width="120" height="80" rx="8" fill="white" stroke="#e2e8f0" stroke-width="1"/>
    <rect x="10" y="10" width="100" height="50" rx="4" fill="#f8fafc"/>
    <text x="60" y="30" font-size="8" font-weight="bold" fill="#06b6d4" text-anchor="middle">CULTIVIO</text>
    <rect x="60" y="35" width="30" height="15" rx="2" fill="#3b82f6"/>
    <text x="60" y="100" font-size="11" font-weight="bold" fill="#1e293b" text-anchor="middle">Controller Node</text>
    <text x="60" y="115" font-size="9" fill="#64748b" text-anchor="middle">× 1</text>
  </g>
  
  <!-- Ultrasonic Sensor -->
  <g transform="translate(340, 80)" filter="url(#kitShadow)">
    <rect x="0" y="0" width="120" height="80" rx="8" fill="white" stroke="#e2e8f0" stroke-width="1"/>
    <ellipse cx="60" cy="50" rx="25" ry="10" fill="#374151"/>
    <circle cx="60" cy="50" r="15" fill="#4b5563"/>
    <rect x="40" y="15" width="40" height="25" rx="3" fill="#1e293b"/>
    <text x="60" y="100" font-size="11" font-weight="bold" fill="#1e293b" text-anchor="middle">Ultrasonic Sensor</text>
    <text x="60" y="115" font-size="9" fill="#64748b" text-anchor="middle">Waterproof × 1</text>
  </g>
  
  <!-- USB Cables -->
  <g transform="translate(40, 220)" filter="url(#kitShadow)">
    <rect x="0" y="0" width="120" height="80" rx="8" fill="white" stroke="#e2e8f0" stroke-width="1"/>
    <path d="M30 40 Q60 30 90 40" stroke="#1e293b" stroke-width="4" fill="none"/>
    <rect x="20" y="35" width="20" height="12" rx="3" fill="#374151"/>
    <rect x="80" y="35" width="20" height="12" rx="3" fill="#374151"/>
    <text x="60" y="100" font-size="11" font-weight="bold" fill="#1e293b" text-anchor="middle">USB-C Cables</text>
    <text x="60" y="115" font-size="9" fill="#64748b" text-anchor="middle">1m × 2</text>
  </g>
  
  <!-- Quick Start Guide -->
  <g transform="translate(190, 220)" filter="url(#kitShadow)">
    <rect x="0" y="0" width="120" height="80" rx="8" fill="white" stroke="#e2e8f0" stroke-width="1"/>
    <rect x="25" y="15" width="70" height="50" fill="#f8fafc" stroke="#e2e8f0"/>
    <text x="60" y="35" font-size="8" fill="#06b6d4" text-anchor="middle">📖</text>
    <text x="60" y="48" font-size="6" fill="#64748b" text-anchor="middle">QUICK START</text>
    <text x="60" y="100" font-size="11" font-weight="bold" fill="#1e293b" text-anchor="middle">Quick Start Guide</text>
    <text x="60" y="115" font-size="9" fill="#64748b" text-anchor="middle">+ Warranty Card</text>
  </g>
  
  <!-- Mounting Hardware -->
  <g transform="translate(340, 220)" filter="url(#kitShadow)">
    <rect x="0" y="0" width="120" height="80" rx="8" fill="white" stroke="#e2e8f0" stroke-width="1"/>
    <circle cx="35" cy="40" r="8" fill="#94a3b8"/>
    <circle cx="55" cy="40" r="8" fill="#94a3b8"/>
    <circle cx="75" cy="40" r="8" fill="#94a3b8"/>
    <circle cx="95" cy="40" r="6" fill="#fbbf24"/>
    <text x="60" y="100" font-size="11" font-weight="bold" fill="#1e293b" text-anchor="middle">Mounting Kit</text>
    <text x="60" y="115" font-size="9" fill="#64748b" text-anchor="middle">Screws & Plugs</text>
  </g>
  
  <!-- Price badge -->
  <rect x="180" y="350" width="140" height="40" rx="20" fill="url(#brandGrad)"/>
  <text x="250" y="377" font-size="18" font-weight="bold" fill="white" text-anchor="middle">₹2,999 Only</text>
</svg>

